{
	"asset":{
		"generator":"Khronos glTF Blender I/O v3.5.30",
		"version":"2.0"
	},
	"extensionsUsed":[
		"KHR_materials_transmission",
		"KHR_materials_specular",
		"KHR_materials_ior"
	],
	"scene":0,
	"scenes":[
		{
			"name":"Scene",
			"nodes":[
				0
			]
		}
	],
	"nodes":[
		{
			"mesh":0,
			"name":"character",
			"rotation":[
				0.7071068286895752,
				0,
				0,
				0.7071068286895752
			],
			"scale":[
				0.8752026557922363,
				0.8752026557922363,
				0.8752026557922363
			]
		}
	],
	"materials":[
		{
			"alphaMode":"BLEND",
			"doubleSided":true,
			"extensions":{
				"KHR_materials_transmission":{
					"transmissionFactor":1
				},
				"KHR_materials_specular":{
					"specularColorFactor":[
						1,
						1,
						1
					]
				},
				"KHR_materials_ior":{
					"ior":0
				}
			},
			"name":"aiStandardSurface1SG",
			"pbrMetallicRoughness":{
				"baseColorFactor":[
					0,
					0,
					0,
					1
				],
				"metallicFactor":0
			}
		},
		{
			"alphaMode":"BLEND",
			"doubleSided":true,
			"extensions":{
				"KHR_materials_transmission":{
					"transmissionFactor":1
				},
				"KHR_materials_specular":{
					"specularColorFactor":[
						1,
						1,
						1
					]
				},
				"KHR_materials_ior":{
					"ior":0
				}
			},
			"name":"aiStandardSurface7SG",
			"pbrMetallicRoughness":{
				"baseColorFactor":[
					0,
					0,
					0,
					1
				],
				"metallicFactor":0
			}
		},
		{
			"alphaMode":"BLEND",
			"doubleSided":true,
			"extensions":{
				"KHR_materials_transmission":{
					"transmissionFactor":1
				},
				"KHR_materials_specular":{
					"specularColorFactor":[
						1,
						1,
						1
					]
				},
				"KHR_materials_ior":{
					"ior":0
				}
			},
			"name":"aiStandardSurface2SG",
			"pbrMetallicRoughness":{
				"baseColorFactor":[
					0,
					0,
					0,
					1
				],
				"metallicFactor":0
			}
		},
		{
			"alphaMode":"BLEND",
			"doubleSided":true,
			"extensions":{
				"KHR_materials_transmission":{
					"transmissionFactor":1
				},
				"KHR_materials_specular":{
					"specularColorFactor":[
						1,
						1,
						1
					]
				},
				"KHR_materials_ior":{
					"ior":0
				}
			},
			"name":"aiStandardSurface4SG",
			"pbrMetallicRoughness":{
				"baseColorFactor":[
					0,
					0,
					0,
					1
				],
				"metallicFactor":0
			}
		},
		{
			"alphaMode":"BLEND",
			"doubleSided":true,
			"extensions":{
				"KHR_materials_transmission":{
					"transmissionFactor":1
				},
				"KHR_materials_specular":{
					"specularColorFactor":[
						1,
						1,
						1
					]
				},
				"KHR_materials_ior":{
					"ior":1
				}
			},
			"name":"lambert2SG",
			"pbrMetallicRoughness":{
				"baseColorFactor":[
					0,
					0,
					0,
					1
				],
				"metallicFactor":0
			}
		},
		{
			"alphaMode":"BLEND",
			"doubleSided":true,
			"extensions":{
				"KHR_materials_transmission":{
					"transmissionFactor":1
				},
				"KHR_materials_specular":{
					"specularColorFactor":[
						1,
						1,
						1
					]
				},
				"KHR_materials_ior":{
					"ior":0
				}
			},
			"name":"aiStandardSurface5SG",
			"pbrMetallicRoughness":{
				"baseColorFactor":[
					0,
					0,
					0,
					1
				],
				"metallicFactor":0
			}
		},
		{
			"alphaMode":"BLEND",
			"doubleSided":true,
			"extensions":{
				"KHR_materials_transmission":{
					"transmissionFactor":1
				},
				"KHR_materials_specular":{
					"specularColorFactor":[
						1,
						1,
						1
					]
				},
				"KHR_materials_ior":{
					"ior":0
				}
			},
			"name":"aiStandardSurface8SG",
			"pbrMetallicRoughness":{
				"baseColorFactor":[
					0,
					0,
					0,
					1
				],
				"metallicFactor":0
			}
		},
		{
			"alphaMode":"BLEND",
			"doubleSided":true,
			"extensions":{
				"KHR_materials_transmission":{
					"transmissionFactor":1
				},
				"KHR_materials_specular":{
					"specularColorFactor":[
						1,
						1,
						1
					]
				},
				"KHR_materials_ior":{
					"ior":0
				}
			},
			"name":"aiStandardSurface9SG",
			"pbrMetallicRoughness":{
				"baseColorFactor":[
					0,
					0,
					0,
					1
				],
				"metallicFactor":0
			}
		},
		{
			"alphaMode":"BLEND",
			"doubleSided":true,
			"extensions":{
				"KHR_materials_transmission":{
					"transmissionFactor":1
				},
				"KHR_materials_specular":{
					"specularColorFactor":[
						1,
						1,
						1
					]
				},
				"KHR_materials_ior":{
					"ior":0
				}
			},
			"name":"blinn6SG",
			"pbrMetallicRoughness":{
				"baseColorFactor":[
					0,
					0,
					0,
					1
				],
				"metallicFactor":0
			}
		},
		{
			"alphaMode":"BLEND",
			"doubleSided":true,
			"extensions":{
				"KHR_materials_transmission":{
					"transmissionFactor":1
				},
				"KHR_materials_specular":{
					"specularColorFactor":[
						1,
						1,
						1
					]
				},
				"KHR_materials_ior":{
					"ior":0
				}
			},
			"name":"aiStandardSurface10SG",
			"pbrMetallicRoughness":{
				"baseColorFactor":[
					0,
					0,
					0,
					1
				],
				"metallicFactor":0
			}
		},
		{
			"alphaMode":"BLEND",
			"doubleSided":true,
			"extensions":{
				"KHR_materials_transmission":{
					"transmissionFactor":1
				},
				"KHR_materials_specular":{
					"specularColorFactor":[
						1,
						1,
						1
					]
				},
				"KHR_materials_ior":{
					"ior":0
				}
			},
			"name":"aiStandardSurface12SG",
			"pbrMetallicRoughness":{
				"baseColorFactor":[
					0,
					0,
					0,
					1
				],
				"metallicFactor":0
			}
		},
		{
			"alphaMode":"BLEND",
			"doubleSided":true,
			"extensions":{
				"KHR_materials_transmission":{
					"transmissionFactor":1
				},
				"KHR_materials_specular":{
					"specularColorFactor":[
						1,
						1,
						1
					]
				},
				"KHR_materials_ior":{
					"ior":0
				}
			},
			"name":"aiStandardSurface3SG",
			"pbrMetallicRoughness":{
				"baseColorFactor":[
					0,
					0,
					0,
					1
				],
				"metallicFactor":0
			}
		},
		{
			"alphaMode":"BLEND",
			"doubleSided":true,
			"extensions":{
				"KHR_materials_transmission":{
					"transmissionFactor":1
				},
				"KHR_materials_specular":{
					"specularColorFactor":[
						1,
						1,
						1
					]
				},
				"KHR_materials_ior":{
					"ior":0
				}
			},
			"name":"aiStandardSurface6SG",
			"pbrMetallicRoughness":{
				"baseColorFactor":[
					0,
					0,
					0,
					1
				],
				"metallicFactor":0
			}
		}
	],
	"meshes":[
		{
			"name":"character",
			"primitives":[
				{
					"attributes":{
						"POSITION":0,
						"TEXCOORD_0":1,
						"NORMAL":2
					},
					"indices":3,
					"material":0
				},
				{
					"attributes":{
						"POSITION":4,
						"TEXCOORD_0":5,
						"NORMAL":6
					},
					"indices":7,
					"material":1
				},
				{
					"attributes":{
						"POSITION":8,
						"TEXCOORD_0":9,
						"NORMAL":10
					},
					"indices":11,
					"material":2
				},
				{
					"attributes":{
						"POSITION":12,
						"TEXCOORD_0":13,
						"NORMAL":14
					},
					"indices":15,
					"material":3
				},
				{
					"attributes":{
						"POSITION":16,
						"TEXCOORD_0":17,
						"NORMAL":18
					},
					"indices":19,
					"material":4
				},
				{
					"attributes":{
						"POSITION":20,
						"TEXCOORD_0":21,
						"NORMAL":22
					},
					"indices":23,
					"material":5
				},
				{
					"attributes":{
						"POSITION":24,
						"TEXCOORD_0":25,
						"NORMAL":26
					},
					"indices":27,
					"material":6
				},
				{
					"attributes":{
						"POSITION":28,
						"TEXCOORD_0":29,
						"NORMAL":30
					},
					"indices":31,
					"material":7
				},
				{
					"attributes":{
						"POSITION":32,
						"TEXCOORD_0":33,
						"NORMAL":34
					},
					"indices":35,
					"material":8
				},
				{
					"attributes":{
						"POSITION":36,
						"TEXCOORD_0":37,
						"NORMAL":38
					},
					"indices":39,
					"material":9
				},
				{
					"attributes":{
						"POSITION":40,
						"TEXCOORD_0":41,
						"NORMAL":42
					},
					"indices":43,
					"material":10
				},
				{
					"attributes":{
						"POSITION":44,
						"TEXCOORD_0":45,
						"NORMAL":46
					},
					"indices":47,
					"material":11
				},
				{
					"attributes":{
						"POSITION":48,
						"TEXCOORD_0":49,
						"NORMAL":50
					},
					"indices":51,
					"material":12
				}
			]
		}
	],
	"accessors":[
		{
			"bufferView":0,
			"componentType":5126,
			"count":2492,
			"max":[
				7.375607967376709,
				4.290036201477051,
				-0.2223999947309494
			],
			"min":[
				-7.375607967376709,
				-3.727617025375366,
				-19.418363571166992
			],
			"type":"VEC3"
		},
		{
			"bufferView":1,
			"componentType":5126,
			"count":2492,
			"type":"VEC2"
		},
		{
			"bufferView":2,
			"componentType":5126,
			"count":2492,
			"type":"VEC3"
		},
		{
			"bufferView":3,
			"componentType":5123,
			"count":10500,
			"type":"SCALAR"
		},
		{
			"bufferView":4,
			"componentType":5126,
			"count":302,
			"max":[
				3.0910329818725586,
				3.8363430500030518,
				-14.363472938537598
			],
			"min":[
				-3.0910329818725586,
				3.0885560512542725,
				-16.333316802978516
			],
			"type":"VEC3"
		},
		{
			"bufferView":5,
			"componentType":5126,
			"count":302,
			"type":"VEC2"
		},
		{
			"bufferView":6,
			"componentType":5126,
			"count":302,
			"type":"VEC3"
		},
		{
			"bufferView":7,
			"componentType":5123,
			"count":768,
			"type":"SCALAR"
		},
		{
			"bufferView":8,
			"componentType":5126,
			"count":2680,
			"max":[
				4.763050079345703,
				4.436264991760254,
				-14.644490242004395
			],
			"min":[
				-5.013073921203613,
				-4.513160228729248,
				-20.775339126586914
			],
			"type":"VEC3"
		},
		{
			"bufferView":9,
			"componentType":5126,
			"count":2680,
			"type":"VEC2"
		},
		{
			"bufferView":10,
			"componentType":5126,
			"count":2680,
			"type":"VEC3"
		},
		{
			"bufferView":11,
			"componentType":5123,
			"count":8640,
			"type":"SCALAR"
		},
		{
			"bufferView":12,
			"componentType":5126,
			"count":1468,
			"max":[
				4.198701858520508,
				4.098307132720947,
				-12.09439754486084
			],
			"min":[
				-4.486419200897217,
				-4.026803970336914,
				-20.144126892089844
			],
			"type":"VEC3"
		},
		{
			"bufferView":13,
			"componentType":5126,
			"count":1468,
			"type":"VEC2"
		},
		{
			"bufferView":14,
			"componentType":5126,
			"count":1468,
			"type":"VEC3"
		},
		{
			"bufferView":15,
			"componentType":5123,
			"count":6624,
			"type":"SCALAR"
		},
		{
			"bufferView":16,
			"componentType":5126,
			"count":608,
			"max":[
				3.0961570739746094,
				2.39861798286438,
				-5.952506065368652
			],
			"min":[
				-3.0961570739746094,
				-2.288525104522705,
				-10.837451934814453
			],
			"type":"VEC3"
		},
		{
			"bufferView":17,
			"componentType":5126,
			"count":608,
			"type":"VEC2"
		},
		{
			"bufferView":18,
			"componentType":5126,
			"count":608,
			"type":"VEC3"
		},
		{
			"bufferView":19,
			"componentType":5123,
			"count":1608,
			"type":"SCALAR"
		},
		{
			"bufferView":20,
			"componentType":5126,
			"count":280,
			"max":[
				2.462038993835449,
				2.2866270542144775,
				-3.2130489349365234
			],
			"min":[
				-2.462038993835449,
				-2.1623709201812744,
				-6.415771007537842
			],
			"type":"VEC3"
		},
		{
			"bufferView":21,
			"componentType":5126,
			"count":280,
			"type":"VEC2"
		},
		{
			"bufferView":22,
			"componentType":5126,
			"count":280,
			"type":"VEC3"
		},
		{
			"bufferView":23,
			"componentType":5123,
			"count":744,
			"type":"SCALAR"
		},
		{
			"bufferView":24,
			"componentType":5126,
			"count":671,
			"max":[
				5.360191822052002,
				0.2711850106716156,
				-9.056528091430664
			],
			"min":[
				5.21805477142334,
				-0.36858001351356506,
				-9.646126747131348
			],
			"type":"VEC3"
		},
		{
			"bufferView":25,
			"componentType":5126,
			"count":671,
			"type":"VEC2"
		},
		{
			"bufferView":26,
			"componentType":5126,
			"count":671,
			"type":"VEC3"
		},
		{
			"bufferView":27,
			"componentType":5123,
			"count":2196,
			"type":"SCALAR"
		},
		{
			"bufferView":28,
			"componentType":5126,
			"count":42092,
			"max":[
				5.333440780639648,
				0.24474099278450012,
				-9.446632385253906
			],
			"min":[
				5.244402885437012,
				-0.3421199917793274,
				-9.645223617553711
			],
			"type":"VEC3"
		},
		{
			"bufferView":29,
			"componentType":5126,
			"count":42092,
			"type":"VEC2"
		},
		{
			"bufferView":30,
			"componentType":5126,
			"count":42092,
			"type":"VEC3"
		},
		{
			"bufferView":31,
			"componentType":5123,
			"count":218256,
			"type":"SCALAR"
		},
		{
			"bufferView":32,
			"componentType":5126,
			"count":6737,
			"max":[
				3.1923370361328125,
				3.858306884765625,
				-0.1738550066947937
			],
			"min":[
				-3.191999912261963,
				-0.7282950282096863,
				-16.32699966430664
			],
			"type":"VEC3"
		},
		{
			"bufferView":33,
			"componentType":5126,
			"count":6737,
			"type":"VEC2"
		},
		{
			"bufferView":34,
			"componentType":5126,
			"count":6737,
			"type":"VEC3"
		},
		{
			"bufferView":35,
			"componentType":5123,
			"count":23664,
			"type":"SCALAR"
		},
		{
			"bufferView":36,
			"componentType":5126,
			"count":96,
			"max":[
				1.7169630527496338,
				0.8038600087165833,
				-1.8823349475860596
			],
			"min":[
				-1.7169630527496338,
				-0.6515970230102539,
				-1.8978420495986938
			],
			"type":"VEC3"
		},
		{
			"bufferView":37,
			"componentType":5126,
			"count":96,
			"type":"VEC2"
		},
		{
			"bufferView":38,
			"componentType":5126,
			"count":96,
			"type":"VEC3"
		},
		{
			"bufferView":39,
			"componentType":5123,
			"count":144,
			"type":"SCALAR"
		},
		{
			"bufferView":40,
			"componentType":5126,
			"count":300,
			"max":[
				0.9710950255393982,
				3.593820095062256,
				-12.573707580566406
			],
			"min":[
				-1.0015530586242676,
				2.810054063796997,
				-13.328130722045898
			],
			"type":"VEC3"
		},
		{
			"bufferView":41,
			"componentType":5126,
			"count":300,
			"type":"VEC2"
		},
		{
			"bufferView":42,
			"componentType":5126,
			"count":300,
			"type":"VEC3"
		},
		{
			"bufferView":43,
			"componentType":5123,
			"count":1056,
			"type":"SCALAR"
		},
		{
			"bufferView":44,
			"componentType":5126,
			"count":715,
			"max":[
				1.8436650037765503,
				1.2756739854812622,
				-0.16569800674915314
			],
			"min":[
				-1.8436650037765503,
				-0.9394639730453491,
				-1.2013520002365112
			],
			"type":"VEC3"
		},
		{
			"bufferView":45,
			"componentType":5126,
			"count":715,
			"type":"VEC2"
		},
		{
			"bufferView":46,
			"componentType":5126,
			"count":715,
			"type":"VEC3"
		},
		{
			"bufferView":47,
			"componentType":5123,
			"count":3216,
			"type":"SCALAR"
		},
		{
			"bufferView":48,
			"componentType":5126,
			"count":84,
			"max":[
				2.3733229637145996,
				3.7494568824768066,
				-14.146013259887695
			],
			"min":[
				-2.372986078262329,
				3.6593821048736572,
				-15.50798511505127
			],
			"type":"VEC3"
		},
		{
			"bufferView":49,
			"componentType":5126,
			"count":84,
			"type":"VEC2"
		},
		{
			"bufferView":50,
			"componentType":5126,
			"count":84,
			"type":"VEC3"
		},
		{
			"bufferView":51,
			"componentType":5123,
			"count":240,
			"type":"SCALAR"
		}
	],
	"bufferViews":[
		{
			"buffer":0,
			"byteLength":29904,
			"byteOffset":0,
			"target":34962
		},
		{
			"buffer":0,
			"byteLength":19936,
			"byteOffset":29904,
			"target":34962
		},
		{
			"buffer":0,
			"byteLength":29904,
			"byteOffset":49840,
			"target":34962
		},
		{
			"buffer":0,
			"byteLength":21000,
			"byteOffset":79744,
			"target":34963
		},
		{
			"buffer":0,
			"byteLength":3624,
			"byteOffset":100744,
			"target":34962
		},
		{
			"buffer":0,
			"byteLength":2416,
			"byteOffset":104368,
			"target":34962
		},
		{
			"buffer":0,
			"byteLength":3624,
			"byteOffset":106784,
			"target":34962
		},
		{
			"buffer":0,
			"byteLength":1536,
			"byteOffset":110408,
			"target":34963
		},
		{
			"buffer":0,
			"byteLength":32160,
			"byteOffset":111944,
			"target":34962
		},
		{
			"buffer":0,
			"byteLength":21440,
			"byteOffset":144104,
			"target":34962
		},
		{
			"buffer":0,
			"byteLength":32160,
			"byteOffset":165544,
			"target":34962
		},
		{
			"buffer":0,
			"byteLength":17280,
			"byteOffset":197704,
			"target":34963
		},
		{
			"buffer":0,
			"byteLength":17616,
			"byteOffset":214984,
			"target":34962
		},
		{
			"buffer":0,
			"byteLength":11744,
			"byteOffset":232600,
			"target":34962
		},
		{
			"buffer":0,
			"byteLength":17616,
			"byteOffset":244344,
			"target":34962
		},
		{
			"buffer":0,
			"byteLength":13248,
			"byteOffset":261960,
			"target":34963
		},
		{
			"buffer":0,
			"byteLength":7296,
			"byteOffset":275208,
			"target":34962
		},
		{
			"buffer":0,
			"byteLength":4864,
			"byteOffset":282504,
			"target":34962
		},
		{
			"buffer":0,
			"byteLength":7296,
			"byteOffset":287368,
			"target":34962
		},
		{
			"buffer":0,
			"byteLength":3216,
			"byteOffset":294664,
			"target":34963
		},
		{
			"buffer":0,
			"byteLength":3360,
			"byteOffset":297880,
			"target":34962
		},
		{
			"buffer":0,
			"byteLength":2240,
			"byteOffset":301240,
			"target":34962
		},
		{
			"buffer":0,
			"byteLength":3360,
			"byteOffset":303480,
			"target":34962
		},
		{
			"buffer":0,
			"byteLength":1488,
			"byteOffset":306840,
			"target":34963
		},
		{
			"buffer":0,
			"byteLength":8052,
			"byteOffset":308328,
			"target":34962
		},
		{
			"buffer":0,
			"byteLength":5368,
			"byteOffset":316380,
			"target":34962
		},
		{
			"buffer":0,
			"byteLength":8052,
			"byteOffset":321748,
			"target":34962
		},
		{
			"buffer":0,
			"byteLength":4392,
			"byteOffset":329800,
			"target":34963
		},
		{
			"buffer":0,
			"byteLength":505104,
			"byteOffset":334192,
			"target":34962
		},
		{
			"buffer":0,
			"byteLength":336736,
			"byteOffset":839296,
			"target":34962
		},
		{
			"buffer":0,
			"byteLength":505104,
			"byteOffset":1176032,
			"target":34962
		},
		{
			"buffer":0,
			"byteLength":436512,
			"byteOffset":1681136,
			"target":34963
		},
		{
			"buffer":0,
			"byteLength":80844,
			"byteOffset":2117648,
			"target":34962
		},
		{
			"buffer":0,
			"byteLength":53896,
			"byteOffset":2198492,
			"target":34962
		},
		{
			"buffer":0,
			"byteLength":80844,
			"byteOffset":2252388,
			"target":34962
		},
		{
			"buffer":0,
			"byteLength":47328,
			"byteOffset":2333232,
			"target":34963
		},
		{
			"buffer":0,
			"byteLength":1152,
			"byteOffset":2380560,
			"target":34962
		},
		{
			"buffer":0,
			"byteLength":768,
			"byteOffset":2381712,
			"target":34962
		},
		{
			"buffer":0,
			"byteLength":1152,
			"byteOffset":2382480,
			"target":34962
		},
		{
			"buffer":0,
			"byteLength":288,
			"byteOffset":2383632,
			"target":34963
		},
		{
			"buffer":0,
			"byteLength":3600,
			"byteOffset":2383920,
			"target":34962
		},
		{
			"buffer":0,
			"byteLength":2400,
			"byteOffset":2387520,
			"target":34962
		},
		{
			"buffer":0,
			"byteLength":3600,
			"byteOffset":2389920,
			"target":34962
		},
		{
			"buffer":0,
			"byteLength":2112,
			"byteOffset":2393520,
			"target":34963
		},
		{
			"buffer":0,
			"byteLength":8580,
			"byteOffset":2395632,
			"target":34962
		},
		{
			"buffer":0,
			"byteLength":5720,
			"byteOffset":2404212,
			"target":34962
		},
		{
			"buffer":0,
			"byteLength":8580,
			"byteOffset":2409932,
			"target":34962
		},
		{
			"buffer":0,
			"byteLength":6432,
			"byteOffset":2418512,
			"target":34963
		},
		{
			"buffer":0,
			"byteLength":1008,
			"byteOffset":2424944,
			"target":34962
		},
		{
			"buffer":0,
			"byteLength":672,
			"byteOffset":2425952,
			"target":34962
		},
		{
			"buffer":0,
			"byteLength":1008,
			"byteOffset":2426624,
			"target":34962
		},
		{
			"buffer":0,
			"byteLength":480,
			"byteOffset":2427632,
			"target":34963
		}
	],
	"buffers":[
		{
			"byteLength":2428112,
			"uri":"data:application/octet-stream;base64,"
		}
	]
}
